<svg xmlns="http://www.w3.org/2000/svg" viewBox="0 0 998 185.82"><g id="Layer_2" data-name="Layer 2"><g id="Layer_1-2" data-name="Layer 1"><path d="M18.54,37.28a57.45,57.45,0,0,0,2.12,6.47c.78,2,1.69,4,2.71,6a81.5,81.5,0,0,0-12,50.94c4,42.53,40.74,75,83.44,74.06A81.92,81.92,0,0,0,117.51,171L92.39,145.54a11,11,0,0,1,.12-15.62L137,175.1l-7.42,3.19a92.19,92.19,0,0,1-33.49,7.48C46.84,187.43,4.27,149.7.31,100.56A92.58,92.58,0,0,1,18.54,37.28Z"/><path d="M185.82,92.34a92.44,92.44,0,0,1-7.29,36.72l-3.22,7.61L129.44,90.06a11,11,0,0,1,15.55.06l.07.06,26.18,26.62a81.37,81.37,0,0,0,3.53-22.75c.57-42.79-32.43-79.29-75.08-82.73A81.45,81.45,0,0,0,52.05,22C50,20.9,47.93,20,46,19.19A61.69,61.69,0,0,0,39.43,17,93.33,93.33,0,0,1,51.81,9.6a92.88,92.88,0,0,1,134,82.74Z"/><path d="M121.7,45.88c-8.51-8.49-17.28-12.24-26.06-11.15a22.85,22.85,0,0,0-4,.85l-3.51,1.08L83,31.45A116.09,116.09,0,0,0,68.12,18.84c-1.3-.92-2.59-1.8-3.87-2.62-2-1.31-4.06-2.48-6-3.54C56,11.51,53.89,10.49,51.81,9.6q-2.39-1-4.68-1.82c-15.51-5.45-27.34-3.73-32-2.62L8.38,6.75,6.82,13.5A52.74,52.74,0,0,0,6.29,33,66.85,66.85,0,0,0,9.14,44.7q.78,2.31,1.74,4.61c.88,2.12,1.87,4.22,3,6.32s2.19,4,3.43,5.95c.81,1.27,1.65,2.55,2.54,3.82A118.3,118.3,0,0,0,33.25,81.25l5.17,5.15L37.35,90c-1.68,5.64-2.56,17,10.41,30L61,133.17l14.63-14.66,17,.76,28.52-28.58-.8-17,14.63-14.66ZM61,117.4l-5.32-5.31c-8.45-8.43-8.78-15-7.61-18.91l18.59,18.55Zm48.76-31.1L88.15,107.91l-13-.58L50,82.22l-8.88-8.86A99.58,99.58,0,0,1,25.46,53.57C24.72,52.3,24,51,23.37,49.76c-1-2-1.93-4-2.71-6a57.45,57.45,0,0,1-2.12-6.47c-.43-1.59-.77-3.19-1-4.79q-.11-.56-.18-1.11A41.9,41.9,0,0,1,17.68,16a42.12,42.12,0,0,1,16.89-.13c1.54.28,3.17.64,4.86,1.1A61.69,61.69,0,0,1,46,19.19c2,.79,4,1.71,6.08,2.8,1.27.66,2.56,1.37,3.86,2.15a99.73,99.73,0,0,1,19.16,15.2L84,48.2l25.16,25.11Zm3.78-21.55L94.94,46.24A12.15,12.15,0,0,1,97,45.79c5.2-.65,10.87,2,16.82,8l5.33,5.32Z"/><line x1="104.86" y1="119.45" x2="152.52" y2="168.11"/><path d="M155.91,164.8h0a9.46,9.46,0,0,1-13.37-.14l-37.62-38.41a4.81,4.81,0,0,1,0-6.81h0a4.82,4.82,0,0,1,6.81.19Z"/><line x1="118.97" y1="105.34" x2="166.63" y2="154.01"/><path d="M163.25,157.32h0L119,112.15a4.82,4.82,0,0,1,0-6.81h0a4.83,4.83,0,0,1,6.81.19l37.61,38.41A9.46,9.46,0,0,1,163.25,157.32Z"/><path d="M37.71,36.7a11,11,0,1,0,15.55,0A11,11,0,0,0,37.71,36.7ZM51.47,50.46a8.46,8.46,0,1,1,0-12A8.47,8.47,0,0,1,51.47,50.46Z"/><path d="M208.47,63.62h39.34q18.93,0,18.93,16.39V96.7q0,11-6.71,13.86,6.71,2.55,6.71,12.82v18.48q0,16.54-18.93,16.54H208.47Zm37.25,36.07V82c0-2.48-1.34-3.73-4-3.73H229.48v25.19H241.7Q245.72,103.41,245.72,99.69Zm0,40.38V121.59a3.56,3.56,0,0,0-.89-2.75,4.63,4.63,0,0,0-3.13-.82H229.48V143.8H241.7Q245.72,143.8,245.72,140.07Z"/><path d="M300.72,142.75h30.4V158.4H279.41V63.62h50.52V79.27H300.72v23.1H325.6V118H300.72Z"/><path d="M379.1,158.4H357.79V127.7L334,63.62h21.76l12.66,44.56,11.78-44.56h21.76L379.1,127.85Z"/><path d="M427.09,63.62h20q18.78,0,18.78,16.39v61.85q0,16.54-18.78,16.54h-20q-18.93,0-18.92-16.54V80Q408.17,63.63,427.09,63.62ZM444.53,139V83q0-3.72-3.88-3.72H433.5q-4,0-4,3.72v56q0,3.72,4,3.72h7.15Q444.54,142.75,444.53,139Z"/><path d="M518.3,63.62h19.52V158.4H518.74L498,101.62V158.4H478.66V63.62h19.22l20.42,56.63Z"/><path d="M552.13,63.62h39.49q18.93,0,18.93,16.39v61.85q0,16.54-18.93,16.54H552.13Zm37.1,76.45V82c0-2.48-1.34-3.73-4-3.73H573.44V143.8h11.77Q589.23,143.8,589.23,140.07Z"/><path d="M703.38,95h-21.1V82.72q0-3.69-4-3.69h-6q-4,0-4,3.69v57.55a3.8,3.8,0,0,0,.89,2.88,4.59,4.59,0,0,0,3.1.81h6a4.61,4.61,0,0,0,3.1-.81,3.8,3.8,0,0,0,.88-2.88V122H674.9V108h28.48v34.24q0,16.23-18.59,16.23h-19q-18.59,0-18.59-16.23V80.8q0-16.23,18.59-16.23h19q18.59,0,18.59,16.23Z"/><path d="M757.66,158.42l-3.25-17H733l-3.25,17H709l21.25-93.85h26.86l21.84,93.85ZM736,126.1h15.34l-7.67-39.69Z"/><path d="M808,158.42H789.36V64.57h23l15.49,53.12,15.5-53.12h23v93.85H847.79v-63l-12.1,42.64H820.05L808,95.56Z"/><path d="M901.85,142.92H932v15.5h-51.2V64.57h50V80.06H901.85v22.87h24.64v15.5H901.85Z"/><path d="M976.9,139.23v-17a3.57,3.57,0,0,0-.89-2.73,4.59,4.59,0,0,0-3.1-.82h-13q-17.41,0-17.41-16.52V80.8q0-16.23,18.59-16.23h18q18.6,0,18.59,16.23V93.05H976.6v-9.3c0-2.46-1.32-3.69-4-3.69h-5q-4,0-4,3.69v16.53a3.57,3.57,0,0,0,.88,2.73,4.61,4.61,0,0,0,3.1.81h12.69q9.45,0,13.58,4.06t4.13,12V142q0,16.38-18.59,16.38H961.55q-18.74,0-18.74-16.38v-12.1h21.1v9.29q0,3.69,4,3.69h5Q976.9,142.92,976.9,139.23Z"/><path d="M223.8,46.8a8.09,8.09,0,0,1-5.31,1.8,8.25,8.25,0,0,1-5.36-1.8,5.6,5.6,0,0,1-2.2-4.55v-12h3.51v12c0,1.94,1.66,3.29,4.05,3.29s4-1.35,4-3.29v-12h3.51v12A5.67,5.67,0,0,1,223.8,46.8Z"/><path d="M241.9,47a9.69,9.69,0,0,1-10.67,0,5.83,5.83,0,0,1-2.38-4.86h3.46a3.23,3.23,0,0,0,1.35,2.57,5.06,5.06,0,0,0,3,.81c2.17,0,4.1-1.17,4.1-2.8,0-1.3-1.39-2.11-4.14-2.43a15.92,15.92,0,0,1-5.09-1.17,3.64,3.64,0,0,1-2.29-3.42,4.94,4.94,0,0,1,2.11-4.14A8.11,8.11,0,0,1,236.41,30c4,0,7.2,2.21,7.79,5.45h-3.56c-.63-1.62-2.16-2.43-4.5-2.43-1.8,0-3.38.94-3.38,2.25,0,.94,1.49,1.57,4.41,1.89A12.76,12.76,0,0,1,242,38.33a4.3,4.3,0,0,1,2.29,4A5.51,5.51,0,0,1,241.9,47Z"/><path d="M229,25.41h14.41V28H229Z"/><path d="M262.12,42.25a5.7,5.7,0,0,1-2.25,4.55,8.81,8.81,0,0,1-10.67,0A5.58,5.58,0,0,1,247,42.25v-12h3.51v12c0,1.94,1.67,3.29,4.05,3.29s4.06-1.35,4.06-3.29V40.36h-4.73V36.53l1.75.68h3V30.27h3.51v6.94H264v3.15h-1.89Z"/><path d="M255.09,23.52h3.52v1.89h9.77V28H255.09Z"/><path d="M277.69,36.26a3.11,3.11,0,0,0-.85-2.29,3.45,3.45,0,0,0-2.66-1A5.06,5.06,0,0,0,271,34.19a3.35,3.35,0,0,0-1.53,2.61V48.28H266v-18h3.51v2.26A6.85,6.85,0,0,1,275,30a5.85,5.85,0,0,1,6.26,6.21V48.28h-3.52Z"/><path d="M308.94,46.8a8.09,8.09,0,0,1-5.31,1.8,8.25,8.25,0,0,1-5.36-1.8,5.61,5.61,0,0,1-2.21-4.55v-12h3.52v12c0,1.94,1.66,3.29,4.05,3.29s4.05-1.35,4.05-3.29v-12h3.51v12A5.67,5.67,0,0,1,308.94,46.8Z"/><path d="M296.79,25.41h10.89V23.07h3.51V28h-14.4Z"/><path d="M322.31,48.55c-5.17,0-8.28-2.38-8.28-6,0-1.93,1.08-3.37,3.29-4.23a3.78,3.78,0,0,1-2.89-3.51,4.33,4.33,0,0,1,1.72-3.38,6.15,6.15,0,0,1,4.14-1.39,8.14,8.14,0,0,1,3.15.58v3.29a5.07,5.07,0,0,0-2.75-.67c-1.39,0-2.65.67-2.65,1.62,0,.54.4,1,1.17,1.39a6,6,0,0,0,2.56.5,5,5,0,0,0,1.67-.18v3.15h-1.53c-2.84,0-4.28.94-4.28,2.79s1.94,3,4.68,3a5.87,5.87,0,0,0,4-1.26v-14h3.51v15A9.19,9.19,0,0,1,322.31,48.55Z"/><path d="M348.38,46a8.69,8.69,0,0,1-6.62,2.61A8.93,8.93,0,0,1,335.1,46a9.39,9.39,0,0,1-2.52-6.71,13.94,13.94,0,0,1,.13-1.8H341v3.15h-4.68a5.34,5.34,0,0,0,5.49,4.68c3.42,0,5.68-2.48,5.68-6s-2.26-6-5.68-6a5.23,5.23,0,0,0-5,3H333a8.49,8.49,0,0,1,3.42-4.73A9.27,9.27,0,0,1,341.76,30a8.66,8.66,0,0,1,6.62,2.61A9.26,9.26,0,0,1,351,39.28,9.26,9.26,0,0,1,348.38,46Z"/><path d="M365.44,46A6.91,6.91,0,0,1,360,48.6c-3.83,0-6.26-2.43-6.26-6.22V30.27h3.51v12a3.23,3.23,0,0,0,3.51,3.29,5,5,0,0,0,3.15-1.21,3.27,3.27,0,0,0,1.53-2.62V30.27H369v18h-3.52Z"/><path d="M384.17,30.27h3.52v18h-3.52Z"/><path d="M403.35,36.35c0-2.11-1.84-3.37-4.05-3.37a5,5,0,0,0-4.05,1.89V48.28h-3.51V34a9.42,9.42,0,0,1,12.92-2.44,5.58,5.58,0,0,1,2.21,4.69V48.28h-3.52Z"/><path d="M419.43,48.6A6.92,6.92,0,0,1,414,46v2.25h-3.51v-18H414V41.75a3.27,3.27,0,0,0,1.53,2.62,5,5,0,0,0,3.15,1.21,3.45,3.45,0,0,0,2.66-1,3.27,3.27,0,0,0,.85-2.3v-12h3.51V42.38C425.68,46.17,423.25,48.6,419.43,48.6Z"/><path d="M444.68,34.33v14h-3.51V41.53c-.94-1.62-2.52-2.39-4.77-2.39-2.66,0-4.5,1.44-4.5,3.38a2.65,2.65,0,0,0,2.7,2.7,3.8,3.8,0,0,0,2.38-.85l1.76,2.47a6.57,6.57,0,0,1-4.41,1.67A5.79,5.79,0,0,1,430,46.75a6,6,0,0,1-1.62-4.23c0-3.78,3.06-6.53,8.06-6.53a8.62,8.62,0,0,1,4.77,1.26V35.18c-.36-1.26-2.3-2.2-4.1-2.2-2.2,0-3.69.85-4.41,2.56h-3.78A7.24,7.24,0,0,1,432,31.35,9.64,9.64,0,0,1,437.3,30a9.41,9.41,0,0,1,3.24.54l1.31-1.8,3.24,1.57-1.71,1.94A5.05,5.05,0,0,1,444.68,34.33Z"/><path d="M443,27.48V28h-3.51V27c0-1.89,1.12-2.84,3.28-2.84h2.93V26.4h-1.44C443.42,26.4,443,26.76,443,27.48Z"/><path d="M472,45.67a10.23,10.23,0,0,1-7.43,2.75,11.83,11.83,0,0,1-1.31-.05l-1.89-8.46h-1.8V36.76h4.86L466.2,45a4.63,4.63,0,0,0,3.47-1.94,6.47,6.47,0,0,0,1.4-4.18,5.34,5.34,0,0,0-5.54-5.63,7.68,7.68,0,0,0-5.63,2.43l-2.2-2.16A11.13,11.13,0,0,1,466,30a8.06,8.06,0,0,1,6.26,2.52,9.13,9.13,0,0,1,2.34,6.44A9.3,9.3,0,0,1,472,45.67Z"/><path d="M472,28.25a2.71,2.71,0,1,1,2.93-2.7A2.74,2.74,0,0,1,472,28.25Zm0-3.74c-.76,0-1.12.36-1.12,1s.36,1,1.12,1,1.13-.36,1.13-1S472.73,24.51,472,24.51Zm11.53,12.61c0-2.48-1.62-3.87-4-3.87a4.88,4.88,0,0,0-3.24,1.08V30.86a9.78,9.78,0,0,1,4.19-.9,6.27,6.27,0,0,1,4.95,2,6.86,6.86,0,0,1,1.62,4.73V48.28h-3.51Z"/><path d="M502,36.35c0-2.11-1.84-3.37-4.05-3.37a5,5,0,0,0-4,1.89V48.28h-3.51V34a9.42,9.42,0,0,1,12.92-2.44,5.58,5.58,0,0,1,2.2,4.69V48.28H502Z"/><path d="M498.17,23.52h3.51v1.89h9.77V28H498.17Z"/><path d="M521.27,34.69c-.59-1.13-1.8-1.71-3.69-1.71a5,5,0,0,0-4.1,2.07,7.46,7.46,0,0,0-1.67,4.63,6.87,6.87,0,0,0,.81,3.74,2.93,2.93,0,0,0,2.7,1.67,3.45,3.45,0,0,0,2.43-1.17l2.35,2.29a6.32,6.32,0,0,1-4.78,2.3c-4.54,0-7.11-3.42-7-8.83A10,10,0,0,1,511,32.89,8.45,8.45,0,0,1,517.39,30c3.56,0,6,1.26,7.39,3.83V48.28h-3.51Z"/></g></g></svg>