<svg xmlns="http://www.w3.org/2000/svg" width="27.106" height="22.589" viewBox="0 0 27.106 22.589">
  <defs>
    <style>
      .cls-1 {
        fill: none;
      }
    </style>
  </defs>
  <g id="ALL_DEVICE" transform="translate(0)">
    <path id="Path_82" data-name="Path 82" class="cls-1" d="M0,0H22.588V22.588H0Z" transform="translate(2.259 0)"/>
    <path id="Path_83" data-name="Path 83" d="M25.977,12.176l-5.647-.011A1.133,1.133,0,0,0,19.2,13.294V23.459a1.133,1.133,0,0,0,1.129,1.129h5.647a1.133,1.133,0,0,0,1.129-1.129V13.294A1.123,1.123,0,0,0,25.977,12.176Zm0,10.154H20.33V14.424h5.647ZM22.589,2H2.259A2.251,2.251,0,0,0,0,4.259V17.812a2.258,2.258,0,0,0,2.259,2.259h7.906V22.33H7.906v2.259h9.035V22.33H14.683V20.071h2.259V17.812H2.259V4.259h20.33V9.906h2.259V4.259A2.258,2.258,0,0,0,22.589,2ZM13.519,9.906l-1.1-3.388-1.1,3.388H7.906l2.79,1.988L9.634,15.18l2.79-2.033,2.79,2.033-1.062-3.287,2.79-1.988Z" transform="translate(0 -2)"/>
  </g>
</svg>
