<svg id="BEYONDGAMES_LOGO" xmlns="http://www.w3.org/2000/svg" xmlns:xlink="http://www.w3.org/1999/xlink" width="242.971" height="45.245" viewBox="0 0 242.971 45.245">
  <defs>
    <style>
      .cls-1 {
        fill: none;
      }

      .cls-2 {
        clip-path: url(#clip-path);
      }
    </style>
    <clipPath id="clip-path">
      <rect id="Rectangle_6" data-name="Rectangle 6" class="cls-1" width="242.971" height="45.245"/>
    </clipPath>
  </defs>
  <g id="Group_1" data-name="Group 1" class="cls-2">
    <path id="Path_42" data-name="Path 42" d="M4.323,18.716a14.4,14.4,0,0,0,.538,1.566q.3.729.681,1.454a19.94,19.94,0,0,0,23.339,29.2l-6.2-6.118a2.688,2.688,0,0,1-.026-3.8L33.646,51.859l-1.795.8A22.448,22.448,0,0,1,23.724,54.6a22.6,22.6,0,0,1-19.4-35.882" transform="translate(0 -9.379)"/>
    <path id="Path_43" data-name="Path 43" d="M54.623,22.162a22.492,22.492,0,0,1-1.648,8.964l-.758,1.866L40.888,21.8a2.688,2.688,0,0,1,3.787-.038l.015.015,6.468,6.389A19.923,19.923,0,0,0,21.812,5.5c-.513-.258-1.01-.476-1.49-.661a14.61,14.61,0,0,0-1.6-.516,22.612,22.612,0,0,1,35.9,17.842" transform="translate(-9.382 0)"/>
    <path id="Path_44" data-name="Path 44" d="M30.612,12.285c-2.1-2.038-4.249-2.921-6.383-2.625a5.586,5.586,0,0,0-.965.221l-.85.274-1.288-1.25a28.288,28.288,0,0,0-3.652-3.018q-.48-.332-.953-.625-.754-.468-1.481-.841-.8-.416-1.57-.729c-.39-.16-.773-.3-1.145-.428a14.088,14.088,0,0,0-7.8-.527L2.885,3.15,2.53,4.8a12.842,12.842,0,0,0-.061,4.757A16.273,16.273,0,0,0,3.2,12.387q.2.56.44,1.117.333.768.745,1.527.392.722.855,1.436c.2.309.41.616.631.921A28.681,28.681,0,0,0,9.2,21.2l1.276,1.237-.248.882c-.389,1.378-.563,4.155,2.64,7.26l3.264,3.165,3.511-3.62,4.132.127L30.618,23.2l-.252-4.127,3.511-3.62ZM16.072,29.907l-1.316-1.275c-2.086-2.024-2.189-3.61-1.917-4.576l4.59,4.452Zm11.764-7.742L22.66,27.5l-3.165-.1-6.213-6.027-2.193-2.126a24.183,24.183,0,0,1-3.881-4.763q-.279-.459-.523-.921Q6.3,12.844,6,12.115a14.4,14.4,0,0,1-.538-1.566Q5.3,9.968,5.2,9.385c-.017-.089-.032-.178-.047-.268A10.182,10.182,0,0,1,5.184,5.37a10.234,10.234,0,0,1,4.11-.09c.377.061.774.144,1.188.251a14.828,14.828,0,0,1,1.6.516c.479.185.977.4,1.49.661q.465.233.948.511a24.238,24.238,0,0,1,4.717,3.634l2.193,2.126,6.213,6.027Zm.845-5.258L24.1,12.464a2.914,2.914,0,0,1,.5-.115c1.266-.176,2.653.458,4.124,1.884l1.315,1.276Z" transform="translate(-1.142 -1.211)"/>
    <line id="Line_2" data-name="Line 2" x2="11.773" y2="11.683" transform="translate(25.625 29.043)"/>
    <path id="Path_45" data-name="Path 45" d="M63.62,68.747l0,0a2.3,2.3,0,0,1-3.256.011L51.069,59.54A1.153,1.153,0,1,1,52.694,57.9Z" transform="translate(-25.411 -28.839)"/>
    <line id="Line_3" data-name="Line 3" x2="11.773" y2="11.683" transform="translate(29.01 25.56)"/>
    <path id="Path_46" data-name="Path 46" d="M68.781,63.4h0L57.855,52.559a1.153,1.153,0,1,1,1.624-1.635l9.29,9.219a2.3,2.3,0,0,1,.011,3.258" transform="translate(-28.812 -25.341)"/>
    <path id="Path_47" data-name="Path 47" d="M17.26,17.485a2.677,2.677,0,1,0,3.785-.054,2.681,2.681,0,0,0-3.785.054m3.4,3.3a2.061,2.061,0,1,1-.041-2.914,2.062,2.062,0,0,1,.041,2.914" transform="translate(-8.27 -8.356)"/>
    <path id="Path_48" data-name="Path 48" d="M101.685,31.114h9.579q4.608,0,4.609,3.992v4.064q0,2.686-1.633,3.375,1.633.617,1.633,3.12v4.5q0,4.028-4.609,4.028h-9.579Zm9.072,8.781V35.577q0-.906-.98-.907H106.8V40.8h2.975q.98,0,.98-.907m0,9.834v-4.5a.88.88,0,0,0-.218-.671,1.134,1.134,0,0,0-.762-.2H106.8v6.278h2.975q.98,0,.98-.907" transform="translate(-50.956 -15.592)"/>
    <path id="Path_49" data-name="Path 49" d="M141.5,50.382h7.4v3.81H136.308V31.114h12.3v3.81H141.5v5.624h6.06v3.81H141.5Z" transform="translate(-68.307 -15.592)"/>
    <path id="Path_50" data-name="Path 50" d="M173.924,54.192h-5.189V46.717l-5.806-15.6h5.3l3.085,10.85,2.867-10.85h5.3l-5.552,15.639Z" transform="translate(-81.647 -15.592)"/>
    <path id="Path_51" data-name="Path 51" d="M203.761,31.114h4.862q4.572,0,4.572,3.991V50.164q0,4.028-4.572,4.028h-4.862q-4.609,0-4.609-4.028V35.105q0-3.991,4.609-3.991m4.245,18.361V35.831q0-.906-.943-.907h-1.742q-.98,0-.98.907V49.475q0,.908.98.907h1.742q.943,0,.943-.907" transform="translate(-99.799 -15.592)"/>
    <path id="Path_52" data-name="Path 52" d="M243.209,31.114h4.754V54.192h-4.645l-5.044-13.825V54.192h-4.717V31.114h4.681L243.209,44.9Z" transform="translate(-117.04 -15.592)"/>
    <path id="Path_53" data-name="Path 53" d="M269.415,31.114h9.616q4.607,0,4.608,3.992V50.164q0,4.028-4.608,4.028h-9.616Zm9.036,18.615V35.577q0-.906-.98-.907H274.6V50.636h2.867q.98,0,.98-.907" transform="translate(-135.009 -15.592)"/>
    <path id="Path_54" data-name="Path 54" d="M329.489,38.978h-5.138V36q0-.9-.97-.9h-1.473q-.97,0-.97.9V50.009a.921.921,0,0,0,.216.7,1.115,1.115,0,0,0,.754.2h1.473a1.115,1.115,0,0,0,.754-.2.923.923,0,0,0,.216-.7V45.554h-1.8V42.14h6.934v8.335q0,3.953-4.527,3.952h-4.635q-4.527,0-4.527-3.952V35.529q0-3.951,4.527-3.952h4.635q4.527,0,4.527,3.952Z" transform="translate(-158.254 -15.824)"/>
    <path id="Path_55" data-name="Path 55" d="M357.82,54.428l-.791-4.132H351.82l-.791,4.132h-5.066l5.174-22.851h6.539l5.317,22.851Zm-5.282-7.868h3.737l-1.868-9.665Z" transform="translate(-173.369 -15.824)"/>
    <path id="Path_56" data-name="Path 56" d="M389.728,54.428H385.2V31.577h5.605l3.773,12.934,3.772-12.934h5.6V54.428h-4.527V39.086L396.483,49.47h-3.808l-2.946-10.347Z" transform="translate(-193.032 -15.824)"/>
    <path id="Path_57" data-name="Path 57" d="M434.943,50.655h7.33v3.773H429.8V31.577h12.18V35.35h-7.042v5.569h6v3.773h-6Z" transform="translate(-215.384 -15.824)"/>
    <path id="Path_58" data-name="Path 58" d="M468.325,49.757V45.625a.871.871,0,0,0-.216-.665,1.121,1.121,0,0,0-.755-.2h-3.161q-4.24,0-4.239-4.024v-5.21q0-3.951,4.527-3.952h4.383q4.527,0,4.527,3.952v2.982h-5.138V36.248q0-.9-.97-.9h-1.221q-.971,0-.97.9v4.024a.868.868,0,0,0,.216.665,1.117,1.117,0,0,0,.755.2h3.09a4.6,4.6,0,0,1,3.306.988,3.93,3.93,0,0,1,1.006,2.928v5.39q0,3.988-4.527,3.988h-4.347q-4.563,0-4.563-3.988V47.494h5.138v2.263q0,.9.97.9h1.221q.971,0,.97-.9" transform="translate(-230.492 -15.824)"/>
    <path id="Path_59" data-name="Path 59" d="M106.021,18.862a1.968,1.968,0,0,1-1.294.439,2,2,0,0,1-1.3-.439,1.359,1.359,0,0,1-.537-1.107V14.839h.855v2.916c0,.471.406.8.986.8s.987-.329.987-.8V14.839h.855v2.916a1.385,1.385,0,0,1-.548,1.107" transform="translate(-51.558 -7.436)"/>
    <path id="Path_60" data-name="Path 60" d="M114.81,18.829a2.363,2.363,0,0,1-2.6.011,1.425,1.425,0,0,1-.581-1.184h.844a.779.779,0,0,0,.329.625,1.226,1.226,0,0,0,.723.2c.526,0,1-.285,1-.68,0-.318-.34-.515-1.009-.592a3.9,3.9,0,0,1-1.239-.285.887.887,0,0,1-.559-.833,1.2,1.2,0,0,1,.515-1.009,1.973,1.973,0,0,1,1.239-.395,1.8,1.8,0,0,1,1.9,1.327H114.5a1.043,1.043,0,0,0-1.1-.592c-.438,0-.822.23-.822.548,0,.23.362.384,1.074.46a3.093,3.093,0,0,1,1.162.3,1.045,1.045,0,0,1,.559.976,1.344,1.344,0,0,1-.57,1.129" transform="translate(-55.941 -7.359)"/>
    <rect id="Rectangle_4" data-name="Rectangle 4" width="3.508" height="0.636" transform="translate(55.723 6.219)"/>
    <path id="Path_61" data-name="Path 61" d="M124.17,17.754a1.385,1.385,0,0,1-.548,1.107,1.965,1.965,0,0,1-1.294.439,2,2,0,0,1-1.3-.439,1.359,1.359,0,0,1-.537-1.107V14.838h.855v2.916c0,.471.406.8.986.8s.987-.329.987-.8v-.46h-1.151v-.932l.428.165h.723V14.838h.855v1.688h.46v.767h-.46Z" transform="translate(-60.378 -7.436)"/>
    <path id="Path_62" data-name="Path 62" d="M124.442,11.542h.855V12h2.379v.636h-3.234Z" transform="translate(-62.36 -5.784)"/>
    <path id="Path_63" data-name="Path 63" d="M132.61,16.22a.762.762,0,0,0-.209-.559.843.843,0,0,0-.647-.241,1.232,1.232,0,0,0-.767.3.811.811,0,0,0-.373.636v2.8h-.855V14.762h.855v.548a1.669,1.669,0,0,1,1.327-.625,1.424,1.424,0,0,1,1.524,1.513v2.949h-.855Z" transform="translate(-65.025 -7.359)"/>
    <path id="Path_64" data-name="Path 64" d="M147.573,18.862a1.968,1.968,0,0,1-1.294.439,2,2,0,0,1-1.3-.439,1.359,1.359,0,0,1-.537-1.107V14.839h.856v2.916c0,.471.405.8.986.8s.986-.329.986-.8V14.839h.856v2.916a1.385,1.385,0,0,1-.548,1.107" transform="translate(-72.381 -7.436)"/>
    <path id="Path_65" data-name="Path 65" d="M144.791,11.893h2.653v-.57h.855v1.206h-3.508Z" transform="translate(-72.558 -5.674)"/>
    <path id="Path_66" data-name="Path 66" d="M155.224,19.234c-1.261,0-2.017-.581-2.017-1.458a1.075,1.075,0,0,1,.8-1.031.922.922,0,0,1-.7-.855,1.048,1.048,0,0,1,.417-.822,1.5,1.5,0,0,1,1.008-.34,1.954,1.954,0,0,1,.768.143v.8a1.234,1.234,0,0,0-.669-.165c-.34,0-.647.165-.647.395,0,.132.1.252.285.34a1.472,1.472,0,0,0,.625.121,1.216,1.216,0,0,0,.406-.044v.767h-.373c-.69,0-1.041.23-1.041.68s.471.734,1.14.734a1.418,1.418,0,0,0,.965-.307V14.784h.855v3.661a2.235,2.235,0,0,1-1.82.789" transform="translate(-76.775 -7.381)"/>
    <path id="Path_67" data-name="Path 67" d="M166.108,18.587a2.114,2.114,0,0,1-1.611.636,2.172,2.172,0,0,1-1.622-.636,2.285,2.285,0,0,1-.614-1.633,3.452,3.452,0,0,1,.033-.439H164.3v.767h-1.14a1.3,1.3,0,0,0,1.338,1.14,1.353,1.353,0,0,0,1.381-1.469A1.356,1.356,0,0,0,164.5,15.5a1.275,1.275,0,0,0-1.217.723h-.921a2.044,2.044,0,0,1,.833-1.151,2.249,2.249,0,0,1,1.3-.384,2.114,2.114,0,0,1,1.611.636,2.448,2.448,0,0,1,0,3.267" transform="translate(-81.312 -7.359)"/>
    <path id="Path_68" data-name="Path 68" d="M175.438,18.675a1.687,1.687,0,0,1-1.327.625,1.419,1.419,0,0,1-1.524-1.513V14.838h.855v2.927a.787.787,0,0,0,.855.8,1.229,1.229,0,0,0,.767-.3.8.8,0,0,0,.373-.636v-2.8h.855v4.385h-.855Z" transform="translate(-86.487 -7.436)"/>
    <rect id="Rectangle_5" data-name="Rectangle 5" width="0.855" height="4.385" transform="translate(93.512 7.403)"/>
    <path id="Path_69" data-name="Path 69" d="M193.962,16.242a.881.881,0,0,0-.986-.822,1.216,1.216,0,0,0-.987.46v3.267h-.855V15.66a2.145,2.145,0,0,1,1.842-.975,2.118,2.118,0,0,1,1.3.384,1.351,1.351,0,0,1,.537,1.14v2.938h-.855Z" transform="translate(-95.781 -7.359)"/>
    <path id="Path_70" data-name="Path 70" d="M202.457,19.3a1.686,1.686,0,0,1-1.327-.625v.548h-.855V14.839h.855v2.8a.8.8,0,0,0,.373.636,1.231,1.231,0,0,0,.767.3.844.844,0,0,0,.647-.241.8.8,0,0,0,.208-.559V14.839h.855v2.949a1.419,1.419,0,0,1-1.524,1.513" transform="translate(-100.362 -7.436)"/>
    <path id="Path_71" data-name="Path 71" d="M212.978,15.439v3.4h-.855V17.193a1.225,1.225,0,0,0-1.162-.581c-.647,0-1.1.351-1.1.822a.645.645,0,0,0,.658.658.922.922,0,0,0,.581-.208l.427.6a1.6,1.6,0,0,1-1.074.405,1.405,1.405,0,0,1-1.064-.427A1.461,1.461,0,0,1,209,17.434c0-.921.745-1.589,1.962-1.589a2.09,2.09,0,0,1,1.162.307v-.5a1.217,1.217,0,0,0-2.072.088h-.921a1.755,1.755,0,0,1,.768-1.019,2.331,2.331,0,0,1,1.282-.34,2.293,2.293,0,0,1,.79.131l.318-.439.789.384-.417.471a1.229,1.229,0,0,1,.318.515" transform="translate(-104.734 -7.05)"/>
    <path id="Path_72" data-name="Path 72" d="M215.3,12.661v.132h-.855V12.54c0-.46.274-.69.8-.69h.712V12.4h-.351c-.208,0-.307.087-.307.263" transform="translate(-107.465 -5.938)"/>
    <path id="Path_73" data-name="Path 73" d="M226.8,18.51a2.485,2.485,0,0,1-1.808.669c-.1,0-.209,0-.318-.011l-.46-2.061h-.439v-.767h1.184l.438,2.017a1.132,1.132,0,0,0,.844-.471,1.586,1.586,0,0,0,.34-1.019,1.3,1.3,0,0,0-1.348-1.37,1.87,1.87,0,0,0-1.37.592l-.537-.526a2.717,2.717,0,0,1,2.017-.877,1.96,1.96,0,0,1,1.524.614,2.221,2.221,0,0,1,.57,1.567,2.267,2.267,0,0,1-.636,1.644" transform="translate(-111.914 -7.358)"/>
    <path id="Path_74" data-name="Path 74" d="M229.6,12.528a.66.66,0,1,1,.712-.658.667.667,0,0,1-.712.658m0-.91c-.187,0-.274.088-.274.252s.087.252.274.252.274-.088.274-.252-.1-.252-.274-.252m2.806,3.07a.89.89,0,0,0-.975-.943,1.183,1.183,0,0,0-.79.263v-.844a2.392,2.392,0,0,1,1.02-.22,1.524,1.524,0,0,1,1.206.482,1.668,1.668,0,0,1,.395,1.151v2.828H232.4Z" transform="translate(-114.699 -5.619)"/>
    <path id="Path_75" data-name="Path 75" d="M242.086,16.242a.881.881,0,0,0-.986-.822,1.216,1.216,0,0,0-.987.46v3.267h-.855V15.66a2.145,2.145,0,0,1,1.842-.975,2.118,2.118,0,0,1,1.3.384,1.349,1.349,0,0,1,.537,1.14v2.938h-.855Z" transform="translate(-119.897 -7.359)"/>
    <path id="Path_76" data-name="Path 76" d="M243.081,11.542h.855V12h2.379v.636h-3.234Z" transform="translate(-121.813 -5.784)"/>
    <path id="Path_77" data-name="Path 77" d="M251.182,15.836a.916.916,0,0,0-.9-.417,1.232,1.232,0,0,0-1,.5,1.823,1.823,0,0,0-.405,1.129,1.648,1.648,0,0,0,.2.91.715.715,0,0,0,.658.406.841.841,0,0,0,.592-.285l.57.559a1.532,1.532,0,0,1-1.162.559c-1.107,0-1.732-.833-1.71-2.149a2.433,2.433,0,0,1,.647-1.655,2.063,2.063,0,0,1,1.567-.712,1.848,1.848,0,0,1,1.8.931v3.53h-.855Z" transform="translate(-124.29 -7.359)"/>
  </g>
</svg>
