<svg id="BEYONDGAME_LOGO" xmlns="http://www.w3.org/2000/svg" width="239.415" height="98.606" viewBox="0 0 239.415 98.606">
  <defs>
    <style>
      .cls-1 {
        fill: none;
      }

      .cls-2 {
        fill: #fff;
      }
    </style>
  </defs>
  <path id="Path_86" data-name="Path 86" class="cls-1" d="M41.038,72.391l3.447,3.5,14.13,14.356A39.6,39.6,0,0,1,7.2,36.99a40.383,40.383,0,0,1,3.082-5.374A39.8,39.8,0,0,1,21.746,20.494a38.7,38.7,0,0,1,5.55-2.921A39.6,39.6,0,0,1,79.477,69.3l-4.8-4.878-13.348-13.6" transform="translate(-0.922 -3.877)"/>
  <path id="Path_87" data-name="Path 87" class="cls-1" d="M68.1,50.814l.467.482L86.241,69.26A39.593,39.593,0,0,0,34.06,17.531a38.7,38.7,0,0,0-5.55,2.921" transform="translate(-7.687 -3.864)"/>
  <path id="Path_88" data-name="Path 88" class="cls-1" d="M10.283,38A40.382,40.382,0,0,0,7.2,43.382,39.6,39.6,0,0,0,58.616,96.63l-17.1-17.372-.475-.482" transform="translate(-0.924 -10.262)"/>
  <path id="Path_89" data-name="Path 89" class="cls-2" d="M8.4,34a26.288,26.288,0,0,0,.957,2.921,22.989,22.989,0,0,0,1.227,2.724,37.088,37.088,0,0,0,42.638,54.92L41.84,83.013a5.009,5.009,0,0,1,.051-7.069L62.053,96.39l-3.359,1.46A42.072,42.072,0,0,1,4.927,39.44,41.513,41.513,0,0,1,8.4,34Z" transform="translate(0.006 -9.183)"/>
  <path id="Path_90" data-name="Path 90" class="cls-2" d="M90.757,52.68a41.907,41.907,0,0,1-3.308,16.627l-1.46,3.454L65.221,51.643a5.009,5.009,0,0,1,7.039,0h0L84.148,63.757A37.058,37.058,0,0,0,30.17,20.82a30.187,30.187,0,0,0-2.753-1.271,26.675,26.675,0,0,0-2.957-1,42.055,42.055,0,0,1,66.3,34.131Z" transform="translate(-6.594 -2.94)"/>
  <path id="Path_91" data-name="Path 91" class="cls-2" d="M56.052,32.31c-3.856-3.848-7.828-5.55-11.8-5.053a10.318,10.318,0,0,0-1.8.387l-1.585.489L38.5,25.775a52.123,52.123,0,0,0-6.711-5.71c-.591-.424-1.176-.818-1.753-1.19-.927-.591-1.84-1.125-2.731-1.6s-1.964-.993-2.921-1.4c-.73-.307-1.46-.577-2.118-.825a26.159,26.159,0,0,0-14.5-1.183l-3.045.73-.73,3.052a23.893,23.893,0,0,0-.2,8.843,29.771,29.771,0,0,0,1.292,5.28c.234.73.5,1.395.789,2.1.394.957.847,1.906,1.344,2.855s.993,1.8,1.555,2.695c.365.577.73,1.154,1.146,1.731a52.861,52.861,0,0,0,6.083,7.178l2.344,2.337L17.847,52.3c-.73,2.548-1.154,7.711,4.717,13.568l5.988,5.973L35.175,65.2l7.682.343L55.775,52.6l-.358-7.682,6.623-6.638ZM28.545,64.7l-2.41-2.4c-3.826-3.819-3.98-6.776-3.447-8.566l8.419,8.4ZM50.627,50.61,40.856,60.4l-5.878-.263L23.572,48.762l-4.016-4.009a44.88,44.88,0,0,1-7.09-8.96c-.336-.577-.65-1.154-.949-1.731-.46-.905-.869-1.811-1.227-2.724a26.288,26.288,0,0,1-.957-2.921c-.2-.73-.351-1.46-.475-2.191a2.93,2.93,0,0,0-.08-.5,18.847,18.847,0,0,1,.19-6.952,18.986,18.986,0,0,1,7.645-.058,19.7,19.7,0,0,1,2.191.5,26.675,26.675,0,0,1,2.957,1,30.186,30.186,0,0,1,2.753,1.271c.577.3,1.161.621,1.753.978a44.785,44.785,0,0,1,8.675,6.879l4.024,4.009L50.357,44.731Zm1.709-9.77-8.4-8.368a5.681,5.681,0,0,1,.935-.2c2.359-.292,4.922.927,7.624,3.651l2.41,2.41Z" transform="translate(-0.93 -3.608)"/>
  <line id="Line_10" data-name="Line 10" x2="21.585" y2="22.045" transform="translate(47.498 62.015)"/>
  <path id="Path_92" data-name="Path 92" class="cls-2" d="M87.922,105.263h0a4.286,4.286,0,0,1-6.054-.051l-17.043-17.4a2.191,2.191,0,0,1,0-3.089h0a2.191,2.191,0,0,1,3.082.088Z" transform="translate(-17.312 -22.707)"/>
  <line id="Line_11" data-name="Line 11" x2="21.585" y2="22.038" transform="translate(53.881 55.633)"/>
  <path id="Path_93" data-name="Path 93" class="cls-2" d="M93.613,99.517h0L73.576,79.071a2.191,2.191,0,0,1,0-3.082h0a2.191,2.191,0,0,1,3.089.08L93.694,93.463A4.286,4.286,0,0,1,93.613,99.517Z" transform="translate(-19.673 -20.349)"/>
  <path id="Path_94" data-name="Path 94" class="cls-2" d="M22.85,33.083a4.98,4.98,0,1,0,7.039,0A4.98,4.98,0,0,0,22.85,33.083Zm6.229,6.236a3.826,3.826,0,1,1,1.128-2.713A3.834,3.834,0,0,1,29.079,39.319Z" transform="translate(-5.766 -8.543)"/>
  <path id="Path_95" data-name="Path 95" class="cls-2" d="M128.88,17.73h14.188q6.835,0,6.828,5.915v6.017q0,3.98-2.417,5,2.424.905,2.417,4.622v6.66q0,5.973-6.828,5.966H128.88Zm13.436,13.005v-6.4c0-.891-.482-1.344-1.46-1.344h-4.381v9.084h4.381C141.834,32.079,142.316,31.633,142.316,30.735Zm0,14.6v-6.7a1.293,1.293,0,0,0-.321-.993,1.665,1.665,0,0,0-1.125-.292h-4.381v9.3h4.381c.964,0,1.446-.445,1.446-1.344Z" transform="translate(-34.764 -4.794)"/>
  <path id="Path_96" data-name="Path 96" class="cls-2" d="M171.6,46.267h10.953v5.645H163.92V17.73h18.256v5.645H171.6v8.332h8.974v5.645H171.6Z" transform="translate(-44.217 -4.794)"/>
  <path id="Path_97" data-name="Path 97" class="cls-2" d="M207.144,51.912h-7.689V40.842L190.86,17.73H198.7l4.571,16.065,4.243-16.065h7.85l-8.222,23.163Z" transform="translate(-51.485 -4.794)"/>
  <path id="Path_98" data-name="Path 98" class="cls-2" d="M234.338,17.73h7.2q6.769,0,6.769,5.915v22.3q0,5.973-6.769,5.966h-7.2q-6.828,0-6.828-5.966v-22.3Q227.51,17.73,234.338,17.73Zm6.287,27.215V24.718c0-.9-.467-1.344-1.395-1.344h-2.6c-.964,0-1.46.445-1.46,1.344V44.945c0,.9.482,1.344,1.46,1.344h2.585C240.157,46.267,240.625,45.822,240.625,44.945Z" transform="translate(-61.372 -4.794)"/>
  <path id="Path_99" data-name="Path 99" class="cls-2" d="M276.618,17.73h7.039V51.912h-6.879l-7.47-20.446V51.912H262.32V17.73h6.937l7.361,20.446Z" transform="translate(-70.763 -4.794)"/>
  <path id="Path_100" data-name="Path 100" class="cls-2" d="M298.61,17.73h14.239q6.82,0,6.828,5.915v22.3q0,5.973-6.828,5.966H298.61ZM311.995,45.3V24.339c0-.891-.489-1.344-1.46-1.344h-4.25V46.647h4.294C311.506,46.647,311.995,46.2,311.995,45.3Z" transform="translate(-80.553 -4.794)"/>
  <path id="Path_101" data-name="Path 101" class="cls-2" d="M146.893,82.661h-6.828V78.7c0-.8-.424-1.2-1.285-1.2h-1.957c-.862,0-1.292.4-1.292,1.2V97.316a1.212,1.212,0,0,0,.292.935,1.46,1.46,0,0,0,1,.263h1.957a1.46,1.46,0,0,0,1-.263,1.241,1.241,0,0,0,.285-.935V91.4h-2.381V86.867H146.9v11.07q0,5.258-6.017,5.25h-6.156q-6.017,0-6.017-5.25V78.06q0-5.25,6.017-5.25h6.156q6.024,0,6.017,5.25Z" transform="translate(-34.718 -19.653)"/>
  <path id="Path_102" data-name="Path 102" class="cls-2" d="M184.981,103.2l-1.052-5.484h-6.923l-1.044,5.484H169.23L176.1,72.84h8.69L191.86,103.2Zm-7.017-10.449h4.973L180.454,79.9Z" transform="translate(-45.65 -19.661)"/>
  <path id="Path_103" data-name="Path 103" class="cls-2" d="M221.5,103.2H215.48V72.84h7.448l5.009,17.182,5.017-17.182H240.4V103.2h-6.017V82.815l-3.921,13.794H225.4L221.49,82.866Z" transform="translate(-58.127 -19.661)"/>
  <path id="Path_104" data-name="Path 104" class="cls-2" d="M271.6,98.186h9.741V103.2H264.78V72.84h16.182v5.009H271.6v7.4h7.945v5.017H271.6Z" transform="translate(-71.427 -19.661)"/>
  <path id="Path_105" data-name="Path 105" class="cls-2" d="M314.411,96.988V91.5a1.132,1.132,0,0,0-.292-.884,1.461,1.461,0,0,0-1-.263h-4.2q-5.63,0-5.63-5.345V78.06q0-5.25,6.01-5.25h5.842q6.017,0,6.01,5.25v3.958h-6.82V79.039c0-.8-.431-1.2-1.292-1.2H311.4c-.862,0-1.293.4-1.293,1.2v5.345a1.139,1.139,0,0,0,.292.884,1.46,1.46,0,0,0,1,.263h4.089q3.06,0,4.381,1.307a5.236,5.236,0,0,1,1.344,3.892v7.163q0,5.3-6.017,5.294h-5.776q-6.068,0-6.061-5.294V93.979h6.82v3.009c0,.8.431,1.19,1.292,1.19H313.1C313.98,98.178,314.411,97.776,314.411,96.988Z" transform="translate(-81.816 -19.653)"/>
  <path id="Path_106" data-name="Path 106" class="cls-2" d="M133.67,126.081h-1.577v-1.336a.38.38,0,0,0-.088-.292.438.438,0,0,0-.3-.073h-.635a.475.475,0,0,0-.307.073.409.409,0,0,0-.08.292v5.623a.409.409,0,0,0,.08.292.475.475,0,0,0,.307.073h.635a.438.438,0,0,0,.3-.073.38.38,0,0,0,.088-.292v-1.314h1.577v1.46c0,.9-.489,1.351-1.46,1.351h-1.6c-.993,0-1.46-.453-1.46-1.351v-5.922c0-.9.5-1.351,1.46-1.351h1.6c.993,0,1.46.453,1.46,1.351Z" transform="translate(-34.837 -33.258)"/>
  <path id="Path_107" data-name="Path 107" class="cls-2" d="M144.3,123.23h1.665c.993,0,1.46.453,1.46,1.351v5.908c0,.9-.5,1.351-1.46,1.351H144.3c-.993,0-1.46-.453-1.46-1.351v-5.908C142.81,123.683,143.307,123.23,144.3,123.23Zm1.585,7.039V124.8a.365.365,0,0,0-.088-.292.431.431,0,0,0-.3-.08h-.73a.475.475,0,0,0-.314.08.4.4,0,0,0-.08.292v5.469a.4.4,0,0,0,.08.292.475.475,0,0,0,.314.08h.73a.431.431,0,0,0,.3-.08.365.365,0,0,0,.08-.292Z" transform="translate(-38.53 -33.255)"/>
  <path id="Path_108" data-name="Path 108" class="cls-2" d="M158.3,131.825H156.91V123.23h1.723l1.46,5.112,1.46-5.112h1.716v8.595h-1.4v-6.046l-1.146,4.177h-1.271l-1.146-4.162Z" transform="translate(-42.326 -33.255)"/>
  <path id="Path_109" data-name="Path 109" class="cls-2" d="M173.41,123.23h3.169c.993,0,1.46.453,1.46,1.351v2.746c0,.9-.5,1.351-1.46,1.351h-1.6v3.147h-1.57Zm3.089,3.877V124.8a.4.4,0,0,0-.08-.292.467.467,0,0,0-.307-.08H174.98v3.016h1.132a.475.475,0,0,0,.307-.073.409.409,0,0,0,.08-.263Z" transform="translate(-46.777 -33.255)"/>
  <path id="Path_110" data-name="Path 110" class="cls-2" d="M190.5,131.819l-.329-1.789h-1.862l-.3,1.789h-1.57l1.731-8.609h2.118l1.818,8.609Zm-1.986-2.921h1.46l-.73-4.126Z" transform="translate(-50.292 -33.25)"/>
  <path id="Path_111" data-name="Path 111" class="cls-2" d="M204.6,123.23h1.46v8.595H204.6l-1.84-5.7v5.7H201.3V123.23h1.512l1.818,5.623Z" transform="translate(-54.301 -33.255)"/>
  <path id="Path_112" data-name="Path 112" class="cls-2" d="M218.348,131.833h-1.57V129.1l-2.008-5.842H216.4l1.176,4.381,1.1-4.381h1.6l-1.9,5.842Z" transform="translate(-57.935 -33.263)"/>
  <path id="Path_113" data-name="Path 113" class="cls-2" d="M247.78,130.642h2.293v1.183H246.21V123.23h1.57Z" transform="translate(-66.417 -33.255)"/>
  <path id="Path_114" data-name="Path 114" class="cls-2" d="M258.58,123.23h1.57v8.595h-1.57Z" transform="translate(-69.754 -33.255)"/>
  <path id="Path_115" data-name="Path 115" class="cls-2" d="M270.045,131.825H268.65V123.23h1.716l1.46,5.112,1.46-5.112H275v8.595H273.63v-6.046l-1.146,4.177h-1.271l-1.146-4.162Z" transform="translate(-72.471 -33.255)"/>
  <path id="Path_116" data-name="Path 116" class="cls-2" d="M285.27,123.23h1.57v8.595h-1.57Z" transform="translate(-76.954 -33.255)"/>
  <path id="Path_117" data-name="Path 117" class="cls-2" d="M299.139,123.23v1.2H297.62v7.4h-1.57v-7.4h-1.46v-1.2Z" transform="translate(-79.469 -33.255)"/>
  <path id="Path_118" data-name="Path 118" class="cls-2" d="M309.415,130.642h2.621v1.183H307.83V123.23h4.1v1.2h-2.512v2.388h2.118v1.219h-2.118Z" transform="translate(-83.041 -33.255)"/>
  <path id="Path_119" data-name="Path 119" class="cls-2" d="M320.92,123.23H324.2c.993,0,1.461.453,1.461,1.351v5.908c0,.905-.5,1.351-1.461,1.351H320.92Zm3.184,7.1v-5.586a.409.409,0,0,0-.08-.292.46.46,0,0,0-.3-.073H322.49v6.316h1.234a.46.46,0,0,0,.3-.073.409.409,0,0,0,.08-.256Z" transform="translate(-86.572 -33.255)"/>
  <path id="Path_120" data-name="Path 120" class="cls-2" d="M191.443,8.716a2.643,2.643,0,0,1-1.731.584,2.7,2.7,0,0,1-1.753-.584,1.84,1.84,0,0,1-.73-1.46V3.32h1.146V7.234c0,.628.548,1.066,1.329,1.066s1.322-.438,1.322-1.066V3.32h1.146V7.234a1.855,1.855,0,0,1-.73,1.482Z" transform="translate(-50.506 -0.906)"/>
  <path id="Path_121" data-name="Path 121" class="cls-2" d="M199.517,8.734a2.848,2.848,0,0,1-1.745.526,2.921,2.921,0,0,1-1.738-.511,1.913,1.913,0,0,1-.774-1.585h1.132A1.037,1.037,0,0,0,196.83,8a1.643,1.643,0,0,0,.971.263c.73,0,1.336-.38,1.336-.905s-.453-.73-1.351-.8a5.294,5.294,0,0,1-1.665-.38,1.2,1.2,0,0,1-.73-1.117,1.628,1.628,0,0,1,.686-1.358,2.665,2.665,0,0,1,1.665-.526,2.417,2.417,0,0,1,2.541,1.782h-1.161a1.4,1.4,0,0,0-1.46-.8c-.591,0-1.1.307-1.1.73,0,.307.482.511,1.46.613a4.133,4.133,0,0,1,1.555.394,1.409,1.409,0,0,1,.73,1.314,1.789,1.789,0,0,1-.789,1.519Z" transform="translate(-52.672 -0.865)"/>
  <path id="Path_122" data-name="Path 122" class="cls-2" d="M195.32,1.15h4.7V2h-4.7Z" transform="translate(-52.688 -0.321)"/>
  <path id="Path_123" data-name="Path 123" class="cls-2" d="M208.3,7.234a1.855,1.855,0,0,1-.73,1.46,2.629,2.629,0,0,1-1.731.584,2.7,2.7,0,0,1-1.753-.584,1.833,1.833,0,0,1-.73-1.46V3.32h1.146V7.234c0,.628.54,1.066,1.322,1.066s1.322-.438,1.322-1.066V6.613h-1.541V5.365l.57.219h.971V3.32H208.3V5.584h.643v1.03h-.621Z" transform="translate(-54.857 -0.906)"/>
  <path id="Path_124" data-name="Path 124" class="cls-2" d="M207,.3h1.146V.921h3.191v.847H207Z" transform="translate(-55.839 -0.091)"/>
  <path id="Path_125" data-name="Path 125" class="cls-2" d="M215.686,5.256a1.008,1.008,0,0,0-.285-.73,1.125,1.125,0,0,0-.862-.321,1.643,1.643,0,0,0-1.03.394,1.081,1.081,0,0,0-.5.854V9.2H211.86V3.358h1.146v.73a2.234,2.234,0,0,1,1.782-.84,1.913,1.913,0,0,1,2.045,2.008V9.207h-1.146Z" transform="translate(-57.15 -0.886)"/>
  <path id="Path_126" data-name="Path 126" class="cls-2" d="M229.513,8.716a2.921,2.921,0,0,1-3.483,0,1.818,1.818,0,0,1-.73-1.46V3.32h1.146V7.234c0,.628.54,1.066,1.322,1.066s1.322-.438,1.322-1.066V3.32h1.146V7.234a1.869,1.869,0,0,1-.723,1.482Z" transform="translate(-60.776 -0.906)"/>
  <path id="Path_127" data-name="Path 127" class="cls-2" d="M225.63.867h3.556V.1h1.146V1.714h-4.7Z" transform="translate(-60.865 -0.038)"/>
  <path id="Path_128" data-name="Path 128" class="cls-2" d="M236,9.258c-1.687,0-2.7-.774-2.7-1.95a1.46,1.46,0,0,1,1.073-1.387,1.234,1.234,0,0,1-.942-1.146,1.409,1.409,0,0,1,.562-1.1,2,2,0,0,1,1.351-.453,2.665,2.665,0,0,1,1.03.19v1.11a1.672,1.672,0,0,0-.9-.219c-.453,0-.869.219-.869.526,0,.183.131.343.387.46a1.964,1.964,0,0,0,.832.161,1.665,1.665,0,0,0,.548-.058v.993h-.5c-.891,0-1.329.329-1.329.913s.635.979,1.526.979a1.928,1.928,0,0,0,1.3-.409V3.292h1.146V8.17A3.009,3.009,0,0,1,236,9.258Z" transform="translate(-62.934 -0.879)"/>
  <path id="Path_129" data-name="Path 129" class="cls-2" d="M246.776,8.414a2.848,2.848,0,0,1-2.191.847,2.921,2.921,0,0,1-2.191-.847,3.1,3.1,0,0,1-.825-2.191,4.706,4.706,0,0,1,.044-.591h2.695V6.7h-1.533a1.745,1.745,0,0,0,1.84,1.46,1.811,1.811,0,0,0,1.855-1.964,1.826,1.826,0,0,0-1.855-1.957,1.7,1.7,0,0,0-1.628,1h-1.234a2.76,2.76,0,0,1,1.11-1.548,3.045,3.045,0,0,1,1.753-.511,2.826,2.826,0,0,1,2.191.854,3.023,3.023,0,0,1,.84,2.191,3.052,3.052,0,0,1-.869,2.191Z" transform="translate(-65.165 -0.867)"/>
  <path id="Path_130" data-name="Path 130" class="cls-2" d="M254.915,8.468a2.278,2.278,0,0,1-1.782.832,1.9,1.9,0,0,1-2.045-2.023V3.32h1.146V7.249a1.052,1.052,0,0,0,1.146,1.066,1.643,1.643,0,0,0,1.03-.394,1.052,1.052,0,0,0,.5-.854V3.32h1.146V9.162h-1.146Z" transform="translate(-67.732 -0.906)"/>
  <path id="Path_131" data-name="Path 131" class="cls-2" d="M264.7,3.32h1.146V9.162H264.7Z" transform="translate(-71.405 -0.906)"/>
  <path id="Path_132" data-name="Path 132" class="cls-2" d="M271.877,5.246a1.183,1.183,0,0,0-1.322-1.1,1.65,1.65,0,0,0-1.329.613V9.139H268.08V4.516a2.921,2.921,0,0,1,2.475-1.307,2.848,2.848,0,0,1,1.745.511,1.833,1.833,0,0,1,.73,1.533V9.19h-1.146Z" transform="translate(-72.317 -0.876)"/>
  <path id="Path_133" data-name="Path 133" class="cls-2" d="M279.373,9.3a2.264,2.264,0,0,1-1.8-.832V9.2H276.43V3.357h1.146v3.71a1.059,1.059,0,0,0,.5.854,1.658,1.658,0,0,0,1.03.394,1.139,1.139,0,0,0,.869-.321,1.066,1.066,0,0,0,.278-.73V3.32H281.4V7.278A1.9,1.9,0,0,1,279.373,9.3Z" transform="translate(-74.57 -0.906)"/>
  <path id="Path_134" data-name="Path 134" class="cls-2" d="M289.778,4.453V9.009h-1.146V6.819a1.636,1.636,0,0,0-1.555-.774c-.869,0-1.46.467-1.46,1.1a.862.862,0,0,0,.884.876,1.227,1.227,0,0,0,.774-.277l.577.811a2.191,2.191,0,0,1-1.46.54,1.9,1.9,0,0,1-1.424-.57,1.971,1.971,0,0,1-.526-1.38c0-1.234,1-2.132,2.629-2.132a2.789,2.789,0,0,1,1.555.409V4.738a1.628,1.628,0,0,0-2.775.117h-1.234a2.351,2.351,0,0,1,1.037-1.373,3.133,3.133,0,0,1,1.716-.453,3.067,3.067,0,0,1,1.059.175l.431-.584,1.059.511-.562.635a1.629,1.629,0,0,1,.423.686Z" transform="translate(-76.73 -0.717)"/>
  <path id="Path_135" data-name="Path 135" class="cls-2" d="M290.576,1.668v.175H289.43V1.507c0-.613.365-.927,1.073-.927h.957v.73h-.475C290.715,1.318,290.576,1.434,290.576,1.668Z" transform="translate(-78.077 -0.167)"/>
  <path id="Path_136" data-name="Path 136" class="cls-2" d="M302.276,8.3a3.308,3.308,0,0,1-2.424.9h-.424l-.621-2.76h-.584V5.391h1.585l.591,2.7a1.534,1.534,0,0,0,1.132-.628,2.191,2.191,0,0,0,.453-1.366,1.745,1.745,0,0,0-1.811-1.84,2.483,2.483,0,0,0-1.833.8l-.73-.73a3.651,3.651,0,0,1,2.709-1.176,2.607,2.607,0,0,1,2.037.825,2.921,2.921,0,0,1,.767,2.1,3.008,3.008,0,0,1-.847,2.22Z" transform="translate(-80.283 -0.859)"/>
  <path id="Path_137" data-name="Path 137" class="cls-2" d="M303.649,1.771A.891.891,0,0,1,302.7.887a.957.957,0,0,1,1.906,0,.9.9,0,0,1-.957.884Zm0-1.227c-.248,0-.365.124-.365.343s.117.336.365.336.372-.117.372-.336a.334.334,0,0,0-.372-.343Zm3.768,4.118A1.19,1.19,0,0,0,306.11,3.4a1.585,1.585,0,0,0-1.059.351V2.618a3.2,3.2,0,0,1,1.366-.292,2.023,2.023,0,0,1,1.614.65,2.191,2.191,0,0,1,.533,1.541v3.79h-1.146Z" transform="translate(-81.657 -0.014)"/>
  <path id="Path_138" data-name="Path 138" class="cls-2" d="M315.96,5.247a1.183,1.183,0,0,0-1.322-1.1,1.621,1.621,0,0,0-1.322.613V9.139H312.17V4.517a3.074,3.074,0,0,1,4.213-.8,1.811,1.811,0,0,1,.73,1.533V9.19h-1.146Z" transform="translate(-84.211 -0.876)"/>
  <path id="Path_139" data-name="Path 139" class="cls-2" d="M315.67.3h1.146V.921h3.191v.847H315.67Z" transform="translate(-85.156 -0.091)"/>
  <path id="Path_140" data-name="Path 140" class="cls-2" d="M324.438,4.713a1.227,1.227,0,0,0-1.2-.555,1.665,1.665,0,0,0-1.336.672,2.468,2.468,0,0,0-.54,1.519,2.191,2.191,0,0,0,.263,1.219.957.957,0,0,0,.884.54,1.117,1.117,0,0,0,.789-.38l.767.73a2.059,2.059,0,0,1-1.555.73c-1.46,0-2.322-1.117-2.293-2.877a3.242,3.242,0,0,1,.869-2.191,2.746,2.746,0,0,1,2.1-.957,2.468,2.468,0,0,1,2.41,1.249V9.146h-1.146Z" transform="translate(-86.38 -0.861)"/>
</svg>
