<svg xmlns="http://www.w3.org/2000/svg" xmlns:xlink="http://www.w3.org/1999/xlink" width="37" height="38" viewBox="0 0 37 38">
  <defs>
    <clipPath id="clip-path">
      <ellipse id="Logo_Mask" cx="18.5" cy="19" rx="18.5" ry="19" transform="translate(0 -0.359)" fill="#1d1d1d"/>
    </clipPath>
  </defs>
  <g id="Genshin_Icon" transform="translate(0 0.359)">
    <ellipse id="Ellipse_2" data-name="Ellipse 2" cx="18.5" cy="19" rx="18.5" ry="19" transform="translate(0 -0.359)" fill="#1d1d1d"/>
    <g id="Mask_Group_2" data-name="Mask Group 2" clip-path="url(#clip-path)">
      <g id="Genshin_Impact_logo" transform="translate(3.216 13.484)">
        <g id="Group_39" data-name="Group 39" transform="translate(9.515 0)">
          <path id="Path_160" data-name="Path 160" d="M13.738,2.07a.336.336,0,0,0-.106.014,14.773,14.773,0,0,0-1.575.465,4.956,4.956,0,0,0-1.1.535,4.071,4.071,0,0,0-.4.3.183.183,0,0,0-.071.095c.04.248.277.382.481.486a2.069,2.069,0,0,0,1.083.2c-.11-.094-.263-.108-.379-.191-.047-.035-.048-.1-.061-.151-.114.023-.222.066-.334.092.1-.064.217-.111.324-.167a6.982,6.982,0,0,1,1.819-.439,6.723,6.723,0,0,0,1.288-.192c-.034-.094-.051-.231-.172-.245A1.617,1.617,0,0,1,14,2.222a.315.315,0,0,0-.266-.151Z" transform="translate(-10.488 -0.192)" fill="#fff"/>
          <path id="Path_161" data-name="Path 161" d="M19.851,2.071a.3.3,0,0,0-.224.083,1.8,1.8,0,0,0-.2.3,1.141,1.141,0,0,1-.366.406c-.04.026-.1.021-.125.07a.57.57,0,0,0-.071.193,7.851,7.851,0,0,0,1.285.191,6.2,6.2,0,0,1,1.991.518l.159.087c-.113-.029-.224-.066-.336-.1-.018.056-.02.127-.075.162-.115.077-.265.092-.369.186a1.675,1.675,0,0,0,.53-.026,1.768,1.768,0,0,0,.934-.443h0a.522.522,0,0,0,.1-.251A4.268,4.268,0,0,0,21.7,2.618a14.149,14.149,0,0,0-1.743-.53.426.426,0,0,0-.11-.017Z" transform="translate(-11.266 -0.192)" fill="#fff"/>
          <path id="Path_162" data-name="Path 162" d="M16.835,0a.05.05,0,0,0-.052.047,3.654,3.654,0,0,1-.37.943.752.752,0,0,1-.271.25,4.187,4.187,0,0,1-.84.322.263.263,0,0,0-.114.073.319.319,0,0,0,.11.068,3.778,3.778,0,0,1,.9.359.984.984,0,0,1,.338.442h0a6.807,6.807,0,0,1,.247.726c.021.07.106.029.107-.029a6.794,6.794,0,0,1,.229-.69L17.117,2.5l.019-.006a2.052,2.052,0,0,1,.157-.265.892.892,0,0,1,.315-.244l.129-.061c.205-.085.417-.151.629-.216.042-.018.111-.031.1-.092a.378.378,0,0,0-.133-.064,3.829,3.829,0,0,1-.814-.316A.745.745,0,0,1,17.25.98a3.681,3.681,0,0,1-.362-.932A.055.055,0,0,0,16.835,0Z" transform="translate(-10.924 0)" fill="#fff"/>
        </g>
        <g id="Group_40" data-name="Group 40" transform="translate(0 2.122)">
          <path id="Path_163" data-name="Path 163" d="M2.949,2.339a2.909,2.909,0,0,0-.584.055A2.883,2.883,0,0,0,.679,3.462a3.233,3.233,0,0,0-.521.993,3.366,3.366,0,0,0,.06,2.217h0a3.1,3.1,0,0,0,.312.614c.018.018.028.061.058.06l-.014,0a3.131,3.131,0,0,0,.611.657H1.2a2.657,2.657,0,0,0,.732.424A2.8,2.8,0,0,0,3.1,8.615a3.874,3.874,0,0,0,1.875-.492,1.793,1.793,0,0,0,.461-.354c0-.138,0-.276,0-.414,0-.217,0-.434,0-.65a1.232,1.232,0,0,1,.043-.424l0,.007a.59.59,0,0,1,.26-.254c.1-.056.229-.056.319-.132,0-.015,0-.045,0-.061a1.666,1.666,0,0,0-.225-.007H3.078c-.054-.014-.123.037-.081.093a.593.593,0,0,0,.245.1,1.071,1.071,0,0,1,.645.371.663.663,0,0,1,.1.3c0,.323,0,.645,0,.968a1.376,1.376,0,0,1-.084.491c-.13.142-.342.082-.512.091a1.526,1.526,0,0,1-.788-.371,2.309,2.309,0,0,1-.5-.645,3.353,3.353,0,0,1-.266-.688c-.034-.139-.061-.279-.084-.419a4.723,4.723,0,0,1-.033-.756,4.239,4.239,0,0,1,.159-.937h0A2.991,2.991,0,0,1,2.348,3.5a2.053,2.053,0,0,1,.46-.433,1.288,1.288,0,0,1,1.015-.2,1.674,1.674,0,0,1,.916.641,2.93,2.93,0,0,1,.364.655,3.464,3.464,0,0,1,.111.33.405.405,0,0,0,.086.2,1.515,1.515,0,0,0,.094-.564c.01-.189.015-.379.015-.568a2,2,0,0,0-.058-.571,1.924,1.924,0,0,1-.963-.278,3,3,0,0,0-1.438-.377Z" transform="translate(0 -2.339)" fill="#fff"/>
          <path id="Path_164" data-name="Path 164" d="M6.416,4.515H6.369c.122.121.286.2.369.36a1.5,1.5,0,0,1,.113.73c0,.209,0,.417,0,.626,0,.224,0,.448,0,.672a3.232,3.232,0,0,1,.373-.315,3.834,3.834,0,0,1,.581-.342q0-.308,0-.615c0-.117-.006-.235,0-.352A.219.219,0,0,1,8.042,5.1c.229,0,.457,0,.686,0a.84.84,0,0,1,.513.214,1.451,1.451,0,0,1,.37.6l.03-.036A1.971,1.971,0,0,0,9.606,5.3a4.156,4.156,0,0,0-.152-.533A17.772,17.772,0,0,1,7.461,4.7c-.3-.041-.6-.107-.9-.173a.649.649,0,0,0-.141-.017Z" transform="translate(-0.591 -2.541)" fill="#fff"/>
          <path id="Path_165" data-name="Path 165" d="M8.971,6.284c-.068,0-.137.008-.2.014a3.655,3.655,0,0,0-1.818.784,3.083,3.083,0,0,0-.468.51A2.967,2.967,0,0,0,6.19,8.1a6.1,6.1,0,0,1,.6-.345l.05-.022c0,.033,0,.067,0,.1a1.189,1.189,0,0,1-.079.493l.008.018-.023.007a2.063,2.063,0,0,1-.521.571,1.98,1.98,0,0,0,.429-.07,5.527,5.527,0,0,1,1.158-.109c.6,0,1.2,0,1.8,0a3.914,3.914,0,0,0,.176-.6,2.692,2.692,0,0,0,.042-.479c0-.041,0-.1-.047-.116a1.518,1.518,0,0,1-.355.577.944.944,0,0,1-.626.272q-.4,0-.8,0a.258.258,0,0,1-.166-.078.354.354,0,0,1-.042-.158c0-.143,0-.286,0-.429,0-.122,0-.243,0-.365l.127-.032q.139-.031.279-.058A8.59,8.59,0,0,1,9.65,7.158a.452.452,0,0,0,.083-.014.4.4,0,0,0-.156-.2c-.088-.052-.192-.073-.278-.13a.473.473,0,0,1-.08-.467.442.442,0,0,0-.248-.061Z" transform="translate(-0.574 -2.705)" fill="#fff"/>
          <path id="Path_166" data-name="Path 166" d="M13.65,4.8q-.422,0-.845,0c-.042.083.076.1.126.135a.5.5,0,0,1,.236.532c0,.125,0,.251,0,.376,0,.339,0,.677,0,1.016,0,.1,0,.2,0,.3L13.042,7c-.164-.213-.332-.424-.5-.636l-.3-.39-.281-.36c-.212-.273-.426-.545-.639-.818-.34,0-.681,0-1.021,0v.063c.084.067.2.086.266.181.134.166.089.389.1.585,0,.175,0,.35,0,.524,0,.157,0,.314,0,.471s0,.306,0,.459c0,.223,0,.447,0,.67a1.8,1.8,0,0,1-.029.494.512.512,0,0,1-.121.172,1.79,1.79,0,0,1-.2.11c-.031.016-.017.054-.016.081.563,0,1.127,0,1.69,0,.019-.089-.083-.106-.141-.139a.42.42,0,0,1-.213-.259,4.2,4.2,0,0,1-.019-.564c0-.19,0-.38,0-.57,0-.122,0-.244,0-.366,0-.1,0-.206,0-.308,0-.14,0-.279,0-.419l0-.056.014-.007c.056.082.119.158.179.237s.138.178.209.266c.128.165.256.33.385.493q.162.21.326.419c.166.208.324.423.494.628.138.185.283.363.423.547a2.464,2.464,0,0,0,.261.283.918.918,0,0,0,.52.23,1.625,1.625,0,0,0-.135-.252l-.019-.008.009-.011c-.034-.12-.084-.235-.108-.358a3.079,3.079,0,0,1-.04-.325c-.012-.218-.006-.436-.008-.655,0-.242,0-.484,0-.726,0-.226,0-1.144,0-1.291a.471.471,0,0,1,.226-.457c.059-.035.161-.05.15-.14q-.422,0-.845,0Z" transform="translate(-0.955 -2.567)" fill="#fff"/>
          <path id="Path_167" data-name="Path 167" d="M16.686,3.894a1.526,1.526,0,0,0-.235.019,1.449,1.449,0,0,0-.979.578,1.28,1.28,0,0,0-.181.4v0a1.445,1.445,0,0,0,.061.825h0a1.417,1.417,0,0,0,.3.48h0a3.576,3.576,0,0,0,.551.416c.391.283.8.537,1.186.832a.644.644,0,0,1,.2.373.935.935,0,0,1-.058.367.642.642,0,0,1-.315.315.9.9,0,0,1-.516.053,2.433,2.433,0,0,1-.244-.053,1.728,1.728,0,0,1-.443-.215c-.047-.037-.094-.074-.14-.111l-.065-.057c-.042-.043-.084-.086-.125-.13a2.843,2.843,0,0,1-.237-.316c-.115-.167-.187-.362-.311-.522a2.039,2.039,0,0,0-.049.52c0,.053,0,.106.006.16a2.8,2.8,0,0,0,.064.466,1.167,1.167,0,0,0,.261.534.808.808,0,0,1,.681-.03,2.747,2.747,0,0,0,1.111.1,1.994,1.994,0,0,0,.5-.121,1.271,1.271,0,0,0,.554-.439,1.414,1.414,0,0,0,.226-.616l0,0a2.708,2.708,0,0,0,.02-.363,1.49,1.49,0,0,0-.209-.736,2.045,2.045,0,0,0-.3-.359c-.277-.231-.582-.424-.877-.63-.268-.185-.542-.361-.8-.554a.571.571,0,0,1-.232-.529.471.471,0,0,1,.183-.292.891.891,0,0,1,.6-.1,1,1,0,0,1,.667.359h0c.106.129.168.288.265.423a2.05,2.05,0,0,0,.618.343.892.892,0,0,0-.081-.327c-.061-.156-.122-.311-.192-.463a4.533,4.533,0,0,0-.294-.513.74.74,0,0,1-.489.006,3.209,3.209,0,0,0-.7-.095Z" transform="translate(-1.401 -2.483)" fill="#fff"/>
          <path id="Path_168" data-name="Path 168" d="M20.718,4.8c-.564.006-1.128-.005-1.692.006-.005.1.118.109.183.157a.519.519,0,0,1,.192.5c0,.151,0,.3,0,.453l0,.017a1.108,1.108,0,0,0-.005.181c0,.233,0,.465,0,.7a1.679,1.679,0,0,0,.009.283l0-.018.011.048-.015.021c-.009.189,0,.379,0,.569q0,.207,0,.415a1.273,1.273,0,0,1-.1.4l.005.018-.017,0a2.034,2.034,0,0,1-.4.471A6.2,6.2,0,0,0,20.2,8.658a2.961,2.961,0,0,1,.522-.048c.031-.087-.075-.109-.132-.139a.436.436,0,0,1-.234-.383c0-.137,0-.274,0-.41s0-.268,0-.4a.224.224,0,0,1,.219-.222c.387,0,.774,0,1.16,0a.415.415,0,0,0,.1.041.458.458,0,0,1,.086.217l-.017.018.013.047a.709.709,0,0,0-.009.195c0,.167,0,.334,0,.5a.444.444,0,0,1-.23.392c-.059.034-.162.05-.144.14.563,0,1.127,0,1.69,0,.036-.083-.071-.1-.123-.133a.436.436,0,0,1-.242-.373c0-.132,0-.265,0-.4.006-.2,0-.4,0-.6.007-.229,0-.458,0-.686.009-.31,0-.62,0-.93a.757.757,0,0,1,.056-.373.4.4,0,0,1,.22-.2c.044-.021.127-.052.087-.116q-.845-.007-1.69,0c-.012.091.091.105.15.141a.449.449,0,0,1,.226.376c0,.287,0,.575,0,.862a.26.26,0,0,1-.085.18.334.334,0,0,1-.141.038H20.6a.25.25,0,0,1-.226-.12,3.247,3.247,0,0,1-.016-.488c0-.057,0-.113,0-.169s0-.091,0-.137a.525.525,0,0,1,.215-.539c.058-.038.183-.053.148-.149Z" transform="translate(-1.752 -2.567)" fill="#fff"/>
          <path id="Path_169" data-name="Path 169" d="M24.336,6.285a1.014,1.014,0,0,0-.142.008.321.321,0,0,0-.131.052.58.58,0,0,1-.024.4c-.028.053-.087.077-.125.12a.439.439,0,0,0-.337.214c-.02.023-.033.08.015.075a9.77,9.77,0,0,1,1.169.076c0-.053,0-.1,0-.157,0-.09,0-.18,0-.27,0-.156,0-.312,0-.468a2.553,2.553,0,0,0-.424-.052Z" transform="translate(-2.186 -2.705)" fill="#fff"/>
          <path id="Path_170" data-name="Path 170" d="M26.234,6.888c0,.239,0,.478,0,.717l.008-.015a6.167,6.167,0,0,1,1.1.569,2.909,2.909,0,0,0-.485-.75,2.835,2.835,0,0,0-.622-.521Z" transform="translate(-2.434 -2.761)" fill="#fff"/>
          <path id="Path_171" data-name="Path 171" d="M24.888,4.8c-.189,0-.378,0-.566.01,0,.013,0,.04,0,.053.148.079.335.078.463.2a.433.433,0,0,1,.146.4c0,.412,0,.824,0,1.237,0,.235,0,.469,0,.7,0,.1,0,.191,0,.287,0,.148,0,.3,0,.444a.552.552,0,0,1-.452.358c-.062.023-.171.023-.166.113a1.08,1.08,0,0,0,.207,0h.074c.624.01,1.248,0,1.873,0,.04,0,.123.012.105-.055a.926.926,0,0,0-.269-.1.551.551,0,0,1-.313-.24l-.021,0,.007-.021a1.42,1.42,0,0,1-.021-.362c0-.2,0-.4,0-.6,0-.262,0-.524,0-.786,0-.294,0-.588,0-.882a.766.766,0,0,1,.051-.394.6.6,0,0,1,.4-.251c.062-.023.165-.023.17-.11-.248-.022-.5,0-.746-.01-.315,0-.63,0-.945,0Z" transform="translate(-2.256 -2.567)" fill="#fff"/>
          <path id="Path_172" data-name="Path 172" d="M33.372,2.718c-.237.026-.467.1-.7.144-.638.143-1.276.282-1.913.426-.037,0-.1.051-.05.083a.993.993,0,0,1,.438.195.686.686,0,0,1,.163.558c0,.184,0,.369,0,.553,0,.293,0,.586,0,.88-.007.18,0,.36,0,.54-.279-.233-.557-.468-.837-.7s-.577-.485-.866-.727c-.35-.295-.7-.588-1.051-.883-.374.054-.748.112-1.122.165-.059.019-.181-.008-.17.086.094.084.24.061.349.123a.491.491,0,0,1,.271.5q0,.424,0,.849c0,.24,0,.48,0,.719q0,.331,0,.661,0,.291,0,.581a.9.9,0,0,1-.072.453.761.761,0,0,1-.344.329.763.763,0,0,0-.195.109c-.026.067.064.058.1.06.167,0,.335.005.5,0h.016c.441.01.883,0,1.324,0,.241-.005.482.01.722-.008.045-.051-.029-.086-.067-.1a.947.947,0,0,1-.382-.262.736.736,0,0,1-.153-.52c0-.149,0-.3,0-.449,0-.265,0-.53,0-.795,0-.223,0-.445,0-.668,0-.145,0-.289,0-.434.12.1.237.2.358.3.189.16.378.32.568.477.348.295.7.586,1.046.881,0,.019,0,.057,0,.076a2.426,2.426,0,0,0,.1.635,1.862,1.862,0,0,0,.146.375,1.832,1.832,0,0,0,.261.39,2.066,2.066,0,0,0,.787.572c.051.02.133.042.156-.028.022-.274.007-.551.008-.826.007-.307,0-.613,0-.92,0-.332.006-.665-.005-1,.013-.388,0-.777,0-1.165.006-.442,0-.885,0-1.327a.969.969,0,0,1,.485-.756c.047-.043.145-.072.124-.151Z" transform="translate(-2.529 -2.374)" fill="#fff"/>
        </g>
        <g id="Group_41" data-name="Group 41" transform="translate(6.125 9.361)">
          <path id="Path_173" data-name="Path 173" d="M7.886,10.362c-.377,0-.755,0-1.132,0,0,.07.089.064.138.089a.283.283,0,0,1,.214.263q0,.483,0,.965a.282.282,0,0,1-.214.267c-.05.024-.129.02-.141.088.378.009.756,0,1.135,0,.046-.007.108.016.139-.032a1.287,1.287,0,0,0-.182-.073.274.274,0,0,1-.179-.255c0-.3,0-.606,0-.909a.3.3,0,0,1,.073-.233c.075-.086.2-.088.29-.148-.035-.042-.094-.024-.14-.028Z" transform="translate(-6.751 -10.323)" fill="#fff"/>
          <path id="Path_174" data-name="Path 174" d="M10.493,10.358c-.288.012-.576,0-.864.007l.008.044c.118.045.251.114.264.256.009.338,0,.678,0,1.016a.279.279,0,0,1-.2.263c-.054.023-.127.025-.155.085.193.02.388,0,.582.01.056-.005.123.015.168-.027-.062-.05-.146-.079-.184-.153a.446.446,0,0,1-.043-.234c0-.3,0-.6,0-.894.063.119.1.251.173.365l-.008.025.034.045c.124.3.261.586.388.88a.378.378,0,0,0,.16-.2c.162-.361.322-.723.485-1.084,0,.3,0,.593,0,.889a.349.349,0,0,1-.086.264c-.043.042-.123.051-.131.12.332.006.663,0,1,0,.046-.007.111.018.14-.033-.084-.049-.189-.057-.264-.121a.259.259,0,0,1-.1-.2q0-.483,0-.966a.274.274,0,0,1,.168-.261c.044-.024.11-.03.118-.09-.28-.006-.561,0-.841,0-.138.3-.269.6-.4.9-.137-.3-.268-.606-.406-.906Z" transform="translate(-7.011 -10.322)" fill="#fff"/>
          <path id="Path_175" data-name="Path 175" d="M14.07,10.363a.2.2,0,0,0-.111.023.74.74,0,0,0,.15.081.273.273,0,0,1,.147.252c0,.321,0,.642,0,.963a.281.281,0,0,1-.21.266c-.05.025-.135.02-.143.091q.632,0,1.263,0c0-.064-.074-.064-.119-.083a.3.3,0,0,1-.231-.234c-.007-.113,0-.227,0-.34a1.421,1.421,0,0,0,.555-.064.6.6,0,0,0,.364-.326.382.382,0,0,0-.1-.395.872.872,0,0,0-.615-.233c-.3,0-.606,0-.909,0H14.07Zm.743.118a.391.391,0,0,1,.347.279.4.4,0,0,1-.121.41.768.768,0,0,0-.1.059.728.728,0,0,1-.13.031c0-.26,0-.52,0-.78Z" transform="translate(-7.415 -10.323)" fill="#fff"/>
          <path id="Path_176" data-name="Path 176" d="M18.254,10.319c.024.056.049.112.073.169q-.1.211-.189.424l-.037.08c-.118.261-.232.523-.35.784a.294.294,0,0,1-.182.168c-.051.024-.13.021-.145.088.205.009.411,0,.616,0,.046-.007.109.016.139-.032-.08-.057-.228-.045-.248-.162a1.1,1.1,0,0,1,.132-.358c.237,0,.474,0,.711,0,.041.1.095.2.126.3a.118.118,0,0,1-.077.15c-.055.029-.146.022-.161.1.374,0,.749.006,1.123,0-.016-.067-.1-.065-.147-.089a.3.3,0,0,1-.19-.19q-.318-.717-.638-1.434h-.556Zm.163.367q.142.319.283.637h-.567Q18.274,11,18.416,10.685Z" transform="translate(-7.742 -10.319)" fill="#fff"/>
          <path id="Path_177" data-name="Path 177" d="M22.491,10.363a1.06,1.06,0,0,0-.542.14.784.784,0,0,0-.359,1.011l.026.036a1.035,1.035,0,0,0,1.575.222.449.449,0,0,0,.135-.288,2,2,0,0,1-.186.214.627.627,0,0,1-.815-.041.7.7,0,0,1,.074-1.031.539.539,0,0,1,.674.063,1.572,1.572,0,0,1,.188.262,1.416,1.416,0,0,0-.018-.49c-.065.006-.13.023-.2.025-.076-.015-.147-.051-.221-.073a1.2,1.2,0,0,0-.335-.05Z" transform="translate(-8.122 -10.323)" fill="#fff"/>
          <path id="Path_178" data-name="Path 178" d="M25.155,10.363c0,.169,0,.337,0,.506.033,0,.066,0,.074-.039a.441.441,0,0,1,.143-.214c.131-.1.3-.058.453-.065,0,.377,0,.754,0,1.131a.283.283,0,0,1-.218.268c-.049.022-.125.021-.138.085.424,0,.85.014,1.274,0-.058-.09-.192-.067-.264-.144-.161-.132-.073-.36-.1-.537,0-.012,0-.037,0-.049.011-.249,0-.5,0-.749.163,0,.355-.034.484.093.083.061.072.193.167.24a3.743,3.743,0,0,0,.014-.521Z" transform="translate(-8.459 -10.323)" fill="#fff"/>
        </g>
      </g>
    </g>
  </g>
</svg>
