<svg xmlns="http://www.w3.org/2000/svg" width="26" height="26" viewBox="0 0 26 26">
  <defs>
    <style>
      .cls-1 {
        fill: #fff;
      }
    </style>
  </defs>
  <g id="instagram" transform="translate(-31 -31)">
    <path id="Path_1" data-name="Path 1" class="cls-1" d="M167.272,158.9h-5.518a2.857,2.857,0,0,0-2.854,2.854v5.518a2.857,2.857,0,0,0,2.854,2.854h5.518a2.857,2.857,0,0,0,2.854-2.854v-5.518A2.86,2.86,0,0,0,167.272,158.9Zm-2.762,9.3a3.692,3.692,0,1,1,3.692-3.692A3.7,3.7,0,0,1,164.51,168.2Zm3.877-6.974a.624.624,0,1,1,.624-.624A.621.621,0,0,1,168.387,161.228Z" transform="translate(-120.51 -120.51)"/>
    <circle id="Ellipse_1" data-name="Ellipse 1" class="cls-1" cx="2.242" cy="2.242" r="2.242" transform="translate(41.734 46.215) rotate(-89.312)"/>
    <path id="Path_2" data-name="Path 2" class="cls-1" d="M44,31A13,13,0,1,0,57,44,13,13,0,0,0,44,31Zm7.222,15.762a4.463,4.463,0,0,1-4.46,4.46H41.244a4.463,4.463,0,0,1-4.46-4.46V41.244a4.463,4.463,0,0,1,4.46-4.46h5.518a4.463,4.463,0,0,1,4.46,4.46Z"/>
  </g>
</svg>
